<svg width="1200" height="900" viewBox="0 0 1200 900" fill="none" xmlns="http://www.w3.org/2000/svg">
  <rect width="1200" height="900" rx="48" fill="#FFF7EF"/>
  <circle cx="210" cy="180" r="88" fill="#FFD7C9"/>
  <circle cx="970" cy="180" r="120" fill="#FFE8B5"/>
  <circle cx="975" cy="710" r="146" fill="#FFDDE6"/>
  <path d="M600 587C600 587 302 413 302 244C302 148 379 89 458 89C522 89 573 122 600 174C627 122 678 89 742 89C821 89 898 148 898 244C898 413 600 587 600 587Z" fill="#FF7D95"/>
  <path d="M420 707C488 652 553 623 600 608C647 623 712 652 780 707" stroke="#8C5A43" stroke-width="24" stroke-linecap="round"/>
  <text x="600" y="744" text-anchor="middle" fill="#7B4B36" font-family="Georgia, serif" font-size="58">Gallery of Us</text>
</svg>
